<?xml version="1.0" encoding="UTF-8"?>
<svg id="Layer_1" xmlns="http://www.w3.org/2000/svg" version="1.1" viewBox="0 0 32 32">
  <!-- Generator: Adobe Illustrator 29.3.0, SVG Export Plug-In . SVG Version: 2.1.0 Build 146)  -->
  <defs>
    <style>
      .st0 {
        fill: #80b6ed;
      }

      .st1 {
        fill: #64a3ed;
      }

      .st2 {
        fill: #264eb2;
      }
    </style>
  </defs>
  <path class="st0" d="M18.3,19.5v-.4c0,0,0,0,0,0,0,.1,0,.3,0,.4Z"/>
  <path class="st1" d="M26.8,10.7h-5.7V1h-5.9c-2.4,0-4.3,1.9-4.3,4.3v6.1h0c0,.3,0,.5,0,.7,0,.2,0,.3,0,.5,0,.4.1.8.2,1.2.9,3.5,3.7,6.2,7.2,7v-.5c0-.2,0-.4,0-.7,0,0,0,0,0-.1,0-.1,0-.3,0-.4-2.5-.7-4.5-2.7-5.3-5.2,0,0,0,0,0,0-.1-.4-.2-.8-.3-1.2,0-.2,0-.3,0-.5h0c0-.2,0-.4,0-.7h0v-1.7h0v-4.6c0-1.5,1.2-2.7,2.7-2.7h4.3v9.8h7.3c1.4,0,2.4,1.1,2.4,2.4v4.5h-7c0,.2,0,.3,0,.5,0,.2,0,.4,0,.6h0v.6h8.6v-6.2c0-2.2-1.8-4.1-4.1-4.1Z"/>
  <path class="st2" d="M21.1,19.8c0-.2,0-.3,0-.5,0-.4-.1-.8-.2-1.2-.9-3.5-3.7-6.2-7.2-7v.5c0,.2,0,.4,0,.7,0,0,0,0,0,.1,0,.1,0,.3,0,.4,2.5.7,4.5,2.7,5.3,5.2,0,0,0,0,0,0,.1.4.2.8.3,1.2,0,.2,0,.3,0,.5h0c0,.2,0,.4,0,.7h0v1.7h0v4.6c0,1.5-1.2,2.7-2.7,2.7h-4.3v-9.8h-7.3c-1.4,0-2.4-1.1-2.4-2.4v-4.5h7c0-.2,0-.3,0-.5,0-.2,0-.4,0-.6h0v-.6H1.1v6.2c0,2.3,1.8,4.1,4.1,4.1h5.7v9.8h5.9c2.4,0,4.3-1.9,4.3-4.3v-6.1h0c0-.3,0-.5,0-.7Z"/>
</svg>